<?xml version="1.0" standalone="no"?>
<!DOCTYPE svg PUBLIC "-//W3C//DTD SVG 20010904//EN"
 "http://www.w3.org/TR/2001/REC-SVG-20010904/DTD/svg10.dtd">
<svg version="1.0" xmlns="http://www.w3.org/2000/svg"
 width="2256.000000pt" height="2256.000000pt" viewBox="0 0 2256.000000 2256.000000"
 preserveAspectRatio="xMidYMid meet">
<metadata>
Created by potrace 1.14, written by Peter Selinger 2001-2017
</metadata>
<g transform="translate(0.000000,2256.000000) scale(0.100000,-0.100000)"
fill="#000000" stroke="none">
<path d="M12069 16168 c-12 -5 -28 -7 -36 -4 -7 3 -15 1 -18 -4 -4 -6 -13 -10
-20 -10 -21 0 -119 -47 -180 -86 -111 -71 -231 -183 -355 -334 -83 -101 -81
-99 -120 -155 -18 -28 -38 -53 -44 -57 -7 -5 -7 -8 -1 -8 6 0 6 -3 -1 -8 -21
-14 -203 -308 -290 -467 -79 -145 -294 -577 -294 -591 0 -8 -4 -14 -9 -14 -9
0 -26 -48 -23 -62 1 -5 -2 -8 -8 -8 -5 0 -10 -8 -10 -18 0 -10 -5 -23 -11 -29
-6 -6 -21 -35 -34 -65 -57 -136 -111 -253 -117 -256 -5 -2 -8 -9 -8 -15 0 -7
-29 -78 -64 -159 -35 -82 -62 -148 -58 -148 3 0 -3 -9 -13 -20 -10 -11 -15
-20 -12 -20 3 0 -9 -36 -28 -81 -19 -44 -35 -87 -35 -95 0 -8 -7 -17 -15 -20
-8 -4 -12 -10 -10 -15 3 -4 -12 -52 -34 -106 -40 -98 -141 -359 -145 -378 -3
-9 -8 -23 -24 -65 -3 -8 -6 -17 -7 -20 -1 -3 -5 -12 -8 -20 -7 -16 -36 -98
-41 -115 -3 -11 -6 -19 -32 -90 -10 -27 -19 -52 -19 -55 0 -3 -9 -30 -20 -60
-10 -30 -20 -59 -22 -65 -1 -5 -30 -91 -63 -190 -34 -99 -63 -187 -65 -195
-13 -56 -19 -76 -25 -85 -4 -5 -15 -41 -25 -80 -10 -38 -20 -74 -24 -80 -3 -5
-6 -16 -7 -23 -2 -8 -6 -21 -10 -30 -4 -9 -8 -21 -9 -27 -2 -5 -15 -50 -29
-100 -15 -49 -28 -97 -30 -105 -2 -8 -14 -49 -26 -90 -12 -41 -23 -85 -26 -98
-2 -13 -11 -42 -19 -65 -12 -37 -60 -214 -70 -260 -2 -9 -6 -21 -9 -25 -3 -5
-8 -24 -11 -43 -6 -36 -24 -104 -33 -129 -3 -8 -7 -22 -8 -30 -2 -8 -19 -78
-39 -155 -19 -77 -38 -151 -40 -165 -3 -14 -15 -63 -26 -110 -23 -93 -27 -109
-34 -142 -47 -214 -57 -263 -61 -282 -2 -11 -6 -32 -9 -46 -12 -59 -19 -96
-21 -115 -1 -11 -3 -20 -4 -20 -3 0 -10 -41 -13 -72 -1 -18 -4 -33 -7 -33 -4
0 -6 -10 -6 -22 -1 -13 -4 -39 -8 -58 -4 -19 -9 -46 -11 -60 -1 -14 -4 -25 -5
-25 -1 0 -4 -16 -6 -35 -2 -19 -5 -48 -8 -65 -12 -76 -35 -266 -41 -335 -18
-212 -21 -364 -11 -540 7 -117 8 -133 21 -230 11 -79 13 -95 15 -95 1 0 4 -16
7 -35 2 -19 9 -42 14 -51 5 -10 9 -29 9 -43 0 -14 5 -28 11 -31 6 -4 8 -13 5
-21 -3 -8 0 -14 6 -14 6 0 9 -3 6 -6 -6 -5 6 -39 40 -114 27 -59 97 -164 139
-207 53 -54 136 -112 183 -128 3 -1 18 -7 35 -14 67 -28 158 -39 293 -36 167
4 205 9 305 42 61 20 88 36 123 70 24 25 42 49 39 53 -3 5 -1 11 5 15 18 11
12 100 -9 119 -26 24 -44 23 -146 -9 -49 -15 -94 -28 -100 -29 -5 -1 -15 -5
-21 -9 -25 -15 -116 -6 -140 14 -6 5 -13 6 -16 3 -11 -11 -114 101 -137 148
-12 26 -23 51 -23 55 0 4 -4 13 -9 19 -11 13 -41 140 -55 229 -11 74 -15 129
-17 212 -1 46 -6 83 -10 83 -5 0 -5 5 -2 11 10 15 12 110 3 115 -5 3 -6 10 -2
15 3 6 8 63 10 127 4 145 12 278 19 334 3 24 7 72 10 108 2 36 5 65 6 65 0 0
2 11 4 25 6 58 17 158 22 195 3 22 6 51 8 65 2 14 4 25 5 25 1 0 4 15 6 33 2
17 6 47 8 65 2 17 5 32 6 32 1 0 3 16 5 35 2 19 6 49 10 65 3 17 8 46 11 65 2
19 6 42 8 50 7 36 17 87 20 110 3 14 5 25 6 25 1 0 4 18 6 39 3 21 9 47 15 58
5 10 8 22 5 27 -3 5 1 30 9 57 8 27 16 65 19 84 2 19 11 64 20 100 8 36 17 77
20 91 5 21 127 181 179 234 7 6 27 30 45 53 19 23 43 51 54 64 11 13 59 69
106 126 47 56 90 102 95 102 6 0 8 3 4 6 -5 5 14 31 49 68 5 6 43 51 82 99 40
49 78 95 85 102 6 7 26 29 42 51 17 21 67 83 113 138 46 56 89 108 95 116 37
47 174 217 182 226 6 6 21 26 35 44 14 19 36 48 51 64 14 17 67 85 119 151 52
66 98 122 102 123 4 2 8 8 8 13 0 4 30 46 66 91 36 46 71 90 77 98 7 9 46 60
87 115 41 55 81 106 88 113 6 7 12 16 12 20 0 4 13 21 28 39 15 17 45 57 67
88 22 32 45 63 50 69 6 6 22 27 35 46 13 19 28 40 33 45 15 17 186 257 225
315 20 30 40 60 45 65 13 16 197 286 197 290 0 1 25 39 55 84 30 45 55 86 55
91 0 6 5 10 10 10 6 0 10 4 10 9 0 9 57 99 69 111 4 3 7 12 9 20 2 8 9 22 16
30 7 8 28 41 47 74 19 32 41 70 50 85 48 78 140 246 161 290 12 28 26 51 30
51 5 0 8 4 8 9 0 5 25 62 56 127 49 103 73 156 79 174 5 15 18 48 26 65 4 11
10 27 11 35 2 8 5 17 9 20 5 5 58 169 64 199 2 9 4 16 5 16 2 0 6 19 14 65 3
19 8 46 12 60 3 14 7 68 8 120 3 86 -4 129 -31 190 -3 8 -7 18 -7 22 -1 4 -9
16 -18 28 -10 11 -16 20 -13 20 16 0 -115 135 -175 180 -25 19 -47 37 -50 41
-3 3 -18 14 -35 23 -16 9 -43 25 -60 36 -47 30 -84 51 -91 49 -4 0 -10 3 -13
8 -8 12 -97 53 -116 53 -8 0 -15 5 -15 12 0 6 -3 9 -6 5 -4 -3 -19 0 -35 9
-16 8 -29 12 -29 10 0 -3 -12 -1 -27 5 -87 33 -312 56 -364 37z m663 -486 c27
-16 52 -57 43 -72 -3 -5 -1 -11 5 -15 11 -7 7 -171 -6 -235 -10 -53 -12 -65
-14 -65 -1 0 -3 -10 -5 -21 -15 -77 -105 -319 -176 -469 -18 -38 -32 -73 -31
-77 1 -5 -3 -8 -8 -8 -5 0 -9 -3 -8 -7 2 -8 -72 -164 -82 -173 -3 -3 -20 -34
-38 -70 -18 -36 -46 -90 -63 -120 -17 -30 -41 -73 -52 -95 -12 -22 -24 -42
-27 -45 -3 -3 -16 -25 -29 -50 -13 -25 -29 -52 -35 -60 -7 -8 -22 -35 -36 -60
-13 -25 -43 -75 -67 -113 -24 -37 -43 -69 -43 -72 0 -3 -16 -27 -35 -54 -19
-26 -35 -51 -35 -54 0 -3 -13 -25 -28 -49 -16 -24 -44 -68 -63 -98 -19 -30
-128 -196 -244 -368 -115 -173 -214 -321 -220 -330 -5 -10 -13 -19 -16 -22 -3
-3 -30 -41 -61 -85 -152 -223 -222 -320 -230 -323 -5 -2 -8 -8 -8 -13 0 -9 -8
-21 -37 -53 -7 -8 -9 -16 -6 -20 4 -3 2 -6 -3 -6 -6 0 -30 -29 -53 -65 -24
-36 -47 -65 -52 -65 -5 0 -9 -6 -9 -12 0 -7 -22 -41 -48 -75 -26 -34 -72 -96
-102 -139 -30 -42 -59 -82 -65 -88 -5 -6 -26 -34 -44 -61 -19 -28 -38 -52 -41
-55 -3 -3 -22 -27 -41 -55 -18 -27 -40 -56 -46 -65 -14 -17 -203 -271 -231
-309 -9 -13 -23 -30 -29 -37 -7 -7 -13 -15 -13 -19 0 -3 -10 -17 -22 -30 -13
-13 -48 -58 -77 -99 -30 -42 -59 -76 -63 -76 -4 0 -8 -4 -8 -9 0 -9 -86 -129
-110 -155 -5 -5 -2 11 7 35 8 24 16 51 18 59 3 16 42 136 52 160 3 8 7 20 8
25 3 14 34 107 42 125 3 8 7 20 9 25 8 28 56 163 64 180 5 11 21 54 36 95 14
41 32 89 39 105 8 17 24 59 36 95 12 36 25 70 29 75 4 6 15 33 25 60 20 55
127 317 155 380 10 22 32 74 50 115 18 41 40 93 50 115 10 22 25 56 33 75 33
75 127 280 178 385 29 61 53 112 54 115 6 18 76 154 85 165 7 8 9 15 6 15 -9
0 25 62 39 72 6 4 7 8 3 8 -9 0 220 449 243 477 6 7 8 13 5 13 -4 0 1 12 12
28 10 15 36 61 57 102 21 41 47 90 58 110 11 19 30 53 42 75 12 22 41 73 63
113 23 41 42 78 42 83 0 5 3 9 8 9 4 0 13 15 21 33 8 17 17 34 21 37 4 3 22
32 40 65 18 33 52 91 76 128 24 37 44 72 44 76 0 5 3 11 8 13 4 2 23 28 42 58
19 30 39 58 45 62 5 4 6 8 2 8 -4 0 -3 6 3 13 40 47 50 62 50 74 0 7 5 13 10
13 6 0 14 8 18 18 4 10 17 32 30 48 13 16 53 67 89 114 197 256 360 402 507
456 72 26 121 28 158 6z"/>
<path d="M10160 15463 c-8 -3 -22 -7 -30 -10 -8 -4 -18 -7 -21 -7 -13 -2 -94
-64 -129 -98 -44 -44 -96 -105 -135 -159 -16 -23 -45 -62 -62 -86 -18 -24 -33
-45 -33 -48 0 -2 -25 -42 -55 -89 -30 -46 -55 -89 -55 -95 0 -6 -4 -11 -9 -11
-5 0 -11 -8 -14 -17 -3 -10 -20 -43 -38 -73 -17 -30 -59 -109 -92 -175 -33
-66 -65 -123 -70 -126 -5 -3 -8 -10 -7 -15 2 -15 -33 -84 -42 -84 -5 0 -7 -4
-3 -9 3 -5 -2 -17 -11 -25 -8 -9 -12 -16 -8 -16 3 0 2 -6 -4 -12 -5 -7 -49
-89 -97 -183 -49 -93 -96 -186 -106 -205 -11 -19 -19 -40 -19 -47 0 -7 -3 -13
-7 -13 -5 0 -19 -25 -33 -55 -14 -30 -28 -55 -32 -55 -5 0 -8 -6 -8 -12 0 -7
-6 -24 -14 -38 -7 -14 -43 -81 -79 -150 -36 -69 -81 -154 -100 -190 -19 -36
-60 -114 -92 -175 -31 -60 -76 -146 -99 -190 -23 -44 -60 -114 -81 -155 -22
-41 -44 -78 -50 -82 -5 -4 -7 -8 -3 -8 4 0 -8 -26 -25 -57 -18 -32 -41 -75
-50 -95 -10 -20 -21 -40 -26 -42 -5 -3 -12 -18 -16 -33 -3 -15 -10 -30 -14
-33 -4 -3 -16 -23 -27 -45 -11 -22 -58 -114 -106 -205 -164 -315 -357 -700
-351 -700 4 0 -2 -7 -13 -15 -10 -8 -16 -15 -12 -15 4 0 -28 -71 -71 -157 -44
-87 -107 -216 -141 -288 -34 -71 -77 -162 -96 -201 -19 -38 -34 -76 -34 -82 0
-7 -4 -12 -10 -12 -5 0 -10 -9 -10 -19 0 -11 -7 -27 -16 -35 -8 -9 -13 -16 -9
-16 3 0 -1 -10 -9 -22 -8 -13 -15 -26 -15 -31 0 -4 -8 -21 -17 -38 -13 -26
-20 -30 -45 -27 -16 3 -29 1 -29 -2 0 -4 -19 -8 -42 -9 -24 -1 -59 -4 -78 -6
-19 -3 -62 -7 -95 -9 -82 -7 -159 -17 -167 -23 -5 -2 -8 1 -8 8 0 8 -3 9 -14
0 -7 -6 -24 -11 -37 -11 -23 1 -54 -2 -174 -14 -27 -3 -72 -8 -100 -11 -27 -2
-77 -7 -110 -11 -33 -3 -78 -8 -100 -9 -61 -6 -145 -14 -185 -19 -19 -3 -69
-8 -110 -11 -41 -4 -88 -9 -105 -11 -16 -2 -59 -6 -95 -9 -36 -4 -76 -8 -90
-10 -14 -2 -59 -6 -100 -10 -41 -3 -93 -8 -115 -11 l-40 -6 35 38 c63 66 278
294 440 465 25 26 95 100 157 166 61 65 135 143 165 174 29 31 112 119 183
194 72 76 154 163 183 194 30 31 99 105 155 164 56 60 145 153 198 208 52 54
94 99 92 99 -2 0 12 17 32 38 50 53 104 114 145 163 19 23 47 55 63 71 15 16
27 31 27 33 0 5 27 37 78 93 12 14 22 28 22 31 0 3 10 17 23 31 12 14 42 52
67 85 25 33 50 65 55 71 6 6 33 44 60 84 28 40 58 81 68 91 9 11 16 20 15 22
-3 4 56 92 65 95 4 2 7 7 7 11 0 5 29 57 65 117 68 113 158 290 158 312 0 6 5
12 10 12 6 0 7 3 4 7 -4 3 -3 11 2 17 9 11 60 153 66 186 2 8 4 16 5 18 2 1 4
7 5 12 1 6 3 11 4 13 2 1 4 13 6 27 3 14 6 34 9 45 13 63 24 242 16 265 -1 3
-3 12 -5 21 -7 40 -18 60 -35 69 -15 8 -24 0 -61 -55 -23 -36 -47 -65 -51 -65
-5 0 -6 -5 -3 -10 3 -6 -1 -13 -9 -16 -9 -3 -16 -12 -16 -19 0 -8 -6 -20 -12
-27 -14 -14 -70 -95 -151 -215 -28 -43 -54 -80 -57 -83 -3 -3 -30 -41 -59 -85
-76 -112 -143 -208 -158 -223 -7 -7 -13 -17 -13 -20 0 -4 -10 -18 -23 -32 -12
-14 -34 -41 -47 -60 -14 -19 -32 -42 -40 -51 -8 -9 -23 -27 -32 -40 -28 -39
-57 -74 -262 -314 -28 -33 -63 -73 -78 -88 -16 -16 -28 -30 -28 -32 0 -1 -21
-25 -47 -53 -27 -28 -79 -85 -118 -127 -38 -42 -115 -125 -170 -183 -138 -147
-821 -828 -989 -987 -75 -71 -163 -155 -195 -185 -32 -30 -95 -89 -140 -130
-46 -41 -96 -87 -111 -102 -16 -16 -33 -28 -39 -28 -6 0 -11 -7 -11 -15 0 -8
-4 -15 -8 -15 -5 0 -29 -20 -55 -45 -26 -24 -47 -43 -47 -41 0 3 -16 -11 -36
-29 -20 -19 -56 -51 -80 -72 -25 -21 -57 -49 -73 -63 -68 -60 -99 -87 -135
-115 -21 -16 -48 -38 -60 -49 -11 -10 -41 -35 -66 -55 -25 -20 -48 -40 -52
-46 -5 -6 -128 -11 -330 -12 -178 -1 -386 -4 -463 -7 -323 -13 -815 -4 -1030
19 -22 2 -67 7 -100 10 -33 3 -67 8 -75 10 -8 2 -36 6 -62 10 -92 11 -218 54
-279 96 -35 23 -59 34 -59 27 0 -8 -9 -21 -20 -31 -16 -13 -18 -21 -10 -42 6
-17 6 -25 -1 -25 -6 0 -7 -5 -4 -10 6 -10 13 -40 20 -85 13 -86 87 -215 175
-304 65 -67 183 -151 211 -151 5 0 9 -4 9 -8 0 -5 6 -9 13 -9 6 0 33 -10 59
-21 26 -12 56 -23 67 -25 11 -2 24 -6 27 -10 4 -4 19 -7 34 -7 15 0 30 -3 34
-7 3 -4 14 -7 24 -8 9 -1 44 -6 77 -10 71 -10 251 -12 318 -4 26 3 47 1 47 -3
0 -5 6 -6 12 -2 7 5 40 9 73 10 33 1 148 5 255 9 107 4 214 8 238 9 51 2 55
-14 10 -43 -18 -11 -45 -31 -60 -44 -15 -13 -39 -32 -54 -43 -14 -10 -45 -34
-68 -52 -22 -17 -45 -36 -51 -40 -5 -4 -65 -49 -133 -100 -67 -50 -126 -92
-131 -92 -5 0 -11 -7 -15 -15 -3 -8 -10 -15 -16 -15 -9 0 -35 -19 -65 -47 -8
-7 -18 -13 -24 -13 -6 0 -11 -4 -11 -9 0 -5 -8 -12 -18 -15 -10 -4 -27 -14
-38 -24 -19 -16 -54 -41 -179 -126 -33 -23 -68 -48 -78 -56 -10 -8 -21 -15
-25 -15 -3 0 -17 -10 -31 -22 -13 -13 -30 -23 -37 -23 -7 0 -14 -4 -16 -8 -4
-10 -97 -72 -108 -72 -5 0 -13 -7 -18 -16 -5 -9 -13 -16 -18 -16 -5 0 -38 -19
-74 -42 -127 -83 -176 -113 -217 -137 -23 -13 -90 -52 -147 -86 -58 -35 -108
-63 -111 -63 -3 0 -30 -16 -60 -35 -30 -19 -55 -32 -55 -29 0 3 -12 -3 -27
-14 -16 -11 -50 -30 -78 -42 -27 -12 -62 -31 -77 -42 -16 -11 -28 -17 -28 -14
0 4 -18 -5 -40 -19 -22 -14 -40 -23 -40 -21 0 3 -26 -8 -57 -23 -181 -89 -525
-219 -653 -247 -42 -9 -55 -12 -55 -15 0 -1 -9 -3 -20 -5 -42 -7 -71 -13 -95
-19 -24 -5 -43 -8 -120 -21 -65 -11 -266 -14 -300 -4 -19 5 -53 11 -75 15 -22
3 -52 8 -67 10 -16 3 -40 7 -56 9 -15 2 -36 6 -47 9 -27 9 -115 20 -143 18
-13 0 -33 -6 -45 -13 -19 -11 -20 -13 -5 -16 10 -2 18 -7 18 -11 0 -23 220
-211 246 -211 6 0 16 -6 22 -12 7 -7 16 -13 20 -14 4 0 33 -13 65 -28 54 -25
168 -64 212 -72 11 -2 31 -6 45 -8 14 -3 41 -8 60 -12 45 -8 412 -13 425 -5 6
3 24 7 40 8 36 3 100 11 100 13 0 1 9 3 20 4 18 2 49 8 110 20 11 2 49 12 85
21 36 9 73 19 83 21 9 2 25 6 35 8 51 12 331 112 407 146 22 10 74 32 115 50
117 51 379 180 385 191 4 5 11 7 16 4 5 -4 9 -2 9 3 0 8 35 23 49 21 2 0 7 3
10 8 8 12 168 103 181 103 5 0 10 5 10 10 0 6 4 10 9 10 10 0 100 54 149 88
17 13 32 21 32 17 0 -3 6 -1 12 5 7 6 90 61 183 122 94 61 172 114 175 117 3
3 13 11 22 16 22 13 121 81 174 120 23 16 52 37 64 45 27 19 240 176 260 193
9 6 42 32 75 56 33 25 62 47 65 50 3 3 38 31 78 60 39 30 72 59 72 63 0 4 5 8
10 8 9 0 269 206 325 258 11 10 45 38 75 62 30 25 62 53 71 62 9 10 20 18 24
18 4 0 15 8 24 18 9 9 32 30 51 46 19 15 54 45 76 67 23 21 44 35 48 32 3 -4
6 0 6 7 0 7 2 11 5 8 3 -2 38 4 78 14 39 11 91 21 114 22 22 2 45 6 51 10 5 3
27 8 48 11 21 2 53 8 69 11 17 4 39 8 50 9 11 2 20 4 20 5 0 1 12 3 26 5 33 4
87 13 116 19 11 3 43 8 70 12 26 3 57 8 68 11 33 7 115 20 230 38 22 3 51 8
65 11 33 6 66 11 115 19 22 3 65 10 95 15 30 5 71 11 90 14 65 10 115 17 210
33 52 8 109 17 125 18 17 2 48 7 70 10 22 4 56 9 75 10 19 2 37 4 40 6 3 1 16
3 30 4 14 2 27 4 30 5 5 2 38 7 110 14 25 2 45 5 45 6 0 1 14 3 30 4 17 2 66
7 110 11 44 5 103 9 130 9 44 1 50 -1 47 -19 -3 -23 -1 -16 -32 -115 -14 -41
-25 -77 -25 -80 -8 -31 -19 -67 -24 -75 -3 -5 -6 -12 -7 -15 0 -3 -7 -25 -14
-50 -7 -25 -14 -47 -15 -50 -1 -3 -5 -18 -10 -35 -4 -16 -12 -36 -18 -42 -5
-7 -7 -13 -4 -13 3 0 -1 -17 -10 -37 -8 -21 -15 -39 -14 -41 1 -1 -5 -27 -14
-57 -8 -30 -16 -58 -17 -62 -1 -5 -7 -23 -15 -40 -7 -18 -11 -33 -8 -33 3 0 1
-9 -5 -21 -6 -11 -13 -28 -15 -37 -2 -9 -20 -73 -40 -142 -21 -69 -39 -132
-41 -140 -2 -8 -10 -40 -19 -70 -9 -30 -18 -62 -20 -70 -2 -8 -4 -15 -5 -15
-1 0 -4 -13 -6 -29 -3 -16 -12 -42 -20 -59 -9 -16 -11 -26 -5 -23 6 4 4 -9 -4
-29 -9 -19 -12 -35 -9 -35 4 0 1 -7 -6 -15 -7 -8 -10 -15 -6 -15 3 0 1 -12 -5
-27 -6 -16 -12 -37 -14 -48 -2 -11 -15 -69 -30 -129 -15 -60 -28 -116 -30
-125 -2 -9 -8 -36 -14 -61 -5 -25 -12 -56 -14 -70 -3 -14 -8 -36 -11 -50 -6
-27 -15 -73 -21 -105 -10 -60 -16 -93 -20 -115 -3 -14 -7 -45 -10 -70 -2 -25
-7 -70 -11 -100 -7 -59 -8 -314 -1 -395 13 -136 19 -191 23 -206 3 -9 7 -34 9
-55 18 -135 73 -308 147 -459 28 -57 37 -74 82 -141 31 -46 138 -150 175 -170
75 -42 86 -47 120 -56 20 -5 58 -12 85 -15 72 -8 76 6 35 137 -21 69 -94 263
-110 292 -5 10 -9 26 -9 36 0 10 -3 22 -7 26 -4 3 -8 13 -10 21 -7 34 -9 41
-15 51 -4 6 -10 26 -13 45 -3 19 -9 43 -12 54 -26 80 -34 271 -20 485 4 52 7
95 7 95 3 0 10 42 16 95 3 30 8 64 11 75 2 11 6 38 9 60 3 22 10 58 15 80 9
38 19 95 21 123 1 6 5 12 10 12 5 0 7 4 4 8 -3 5 3 41 14 80 10 40 19 76 20
80 10 55 57 226 107 387 44 142 123 380 133 397 6 10 10 22 10 27 0 5 5 22 12
38 6 15 12 33 14 38 7 31 154 404 184 470 10 22 33 76 50 120 41 102 67 163
85 196 8 14 12 29 8 33 -3 3 -1 6 6 6 7 0 9 5 6 10 -3 6 -1 10 4 10 6 0 10 3
9 8 -1 8 6 28 37 97 13 28 32 70 43 95 19 41 68 148 145 310 17 36 31 67 32
70 6 20 31 66 40 72 5 4 7 8 3 8 -4 0 11 35 33 79 21 43 39 83 39 89 0 6 3 12
8 14 9 4 112 210 112 225 0 6 3 13 8 15 4 2 46 80 93 173 47 94 114 224 149
290 35 66 77 145 92 175 16 30 33 62 38 70 23 37 180 334 180 341 0 4 3 9 8
11 4 2 19 26 33 53 14 28 35 66 46 85 11 19 46 82 78 140 77 139 243 431 256
450 5 8 12 23 15 33 4 9 10 17 15 17 5 0 9 6 9 14 0 8 7 22 16 30 8 9 13 16 9
16 -3 0 3 13 14 29 12 16 21 34 21 40 0 6 4 11 8 11 5 0 14 16 22 35 8 19 17
35 21 35 4 0 9 8 13 18 3 9 14 31 24 47 9 17 44 75 76 130 33 55 65 107 72
115 7 8 13 18 13 23 1 8 23 47 52 89 11 15 19 30 19 33 0 3 23 42 50 86 28 44
50 85 50 90 0 5 4 9 8 9 4 0 13 12 20 28 15 34 34 65 51 86 7 9 10 16 5 16 -5
0 -4 4 2 8 6 4 22 27 36 52 41 73 72 125 78 130 3 3 18 30 35 60 16 30 39 70
51 88 13 18 29 46 36 62 7 17 16 30 20 30 5 0 8 4 8 9 0 16 189 333 203 339 4
2 7 8 7 12 0 5 39 70 88 145 48 75 92 144 97 153 27 46 131 200 147 218 41 46
4 116 -87 169 -42 25 -216 103 -245 111 -8 2 -40 12 -70 23 -82 29 -226 47
-270 34z"/>
<path d="M15535 12588 c-86 -18 -123 -51 -131 -118 -4 -34 -2 -39 28 -53 18
-9 35 -15 38 -15 3 1 15 -4 28 -11 12 -6 39 -14 60 -16 20 -2 48 -7 62 -10 14
-3 40 -8 58 -11 17 -3 32 -10 32 -16 0 -5 4 -7 8 -4 16 9 72 -60 92 -112 17
-45 19 -70 15 -224 -5 -192 -10 -256 -30 -378 -2 -14 -6 -45 -9 -70 -7 -58
-31 -200 -56 -325 -5 -27 -12 -61 -14 -75 -3 -14 -12 -56 -21 -95 -8 -38 -17
-81 -20 -95 -3 -14 -9 -40 -14 -58 -5 -18 -10 -35 -10 -37 -1 -3 -1 -6 -2 -7
0 -2 -2 -13 -5 -26 -12 -66 -97 -389 -105 -398 -5 -6 -7 -13 -4 -16 3 -3 -1
-24 -9 -47 -9 -23 -15 -43 -16 -46 0 -3 0 -6 -1 -7 0 -2 -2 -10 -4 -18 -5 -27
-102 -352 -150 -505 -26 -82 -48 -156 -48 -162 0 -7 -4 -13 -9 -13 -4 0 -7 -3
-6 -7 3 -13 -14 -77 -24 -89 -5 -7 -8 -16 -7 -20 1 -5 -1 -16 -4 -24 -10 -26
-87 -275 -87 -282 0 -5 -7 -25 -15 -45 -12 -33 -86 -272 -131 -428 -18 -62
-19 -62 -28 -105 -5 -19 -11 -39 -14 -45 -4 -5 -8 -16 -9 -22 -2 -7 -4 -19 -6
-25 -2 -7 -7 -29 -11 -48 -5 -19 -11 -39 -14 -45 -3 -5 -7 -16 -8 -25 -1 -8
-9 -42 -18 -75 -10 -33 -19 -71 -22 -84 -3 -13 -9 -32 -14 -41 -5 -10 -7 -19
-5 -22 3 -2 0 -20 -6 -39 -11 -37 -14 -50 -29 -124 -25 -128 -27 -185 -10
-230 44 -117 402 -247 527 -193 62 27 107 95 146 218 29 95 77 257 82 280 2 8
10 41 18 73 8 31 13 57 10 57 -3 0 -1 6 5 13 5 6 13 26 15 42 3 17 8 39 11 50
3 11 12 49 21 85 8 36 18 72 22 80 3 8 7 20 8 26 5 23 17 62 61 199 40 123 61
184 90 260 4 11 8 22 9 25 1 3 5 14 10 25 4 11 32 80 61 154 29 74 59 138 66
143 7 4 9 8 5 8 -7 0 44 101 117 232 45 81 154 249 240 372 50 70 96 136 101
145 6 9 12 18 15 21 3 3 28 34 55 70 26 36 55 71 63 78 9 6 12 12 6 12 -5 0
-4 4 1 8 9 6 74 81 125 145 8 10 26 31 40 46 14 15 59 65 100 111 145 162 434
445 619 607 77 67 85 74 136 116 27 23 57 50 67 60 10 9 20 17 23 17 3 0 16
10 29 23 13 12 36 31 50 41 15 11 37 28 48 38 26 23 31 23 20 1 -11 -20 -43
-150 -48 -194 -2 -16 -6 -44 -9 -61 -10 -61 -13 -348 -4 -354 5 -3 7 -10 3
-15 -7 -11 19 -103 49 -174 32 -76 118 -204 177 -263 115 -116 267 -193 388
-196 12 -1 22 -3 22 -6 0 -3 38 -5 85 -5 47 0 85 2 85 5 0 3 19 6 41 7 23 0
61 9 85 18 68 26 110 94 67 108 -158 51 -233 96 -284 170 -44 64 -68 123 -84
204 -11 58 -13 198 -2 233 2 8 7 29 12 45 11 45 35 117 43 129 3 6 7 16 8 23
3 20 113 243 157 318 23 39 40 73 39 78 -1 4 2 7 8 7 5 0 10 5 10 10 0 6 18
38 40 71 22 33 40 62 40 64 0 5 122 188 131 195 3 3 16 23 29 45 13 22 29 45
35 52 7 6 26 34 44 62 18 28 37 51 42 51 5 0 9 5 9 10 0 6 18 33 40 61 22 28
40 48 40 44 0 -4 12 8 26 25 26 30 26 31 8 45 -26 18 -85 33 -160 39 -23 2
-45 5 -50 8 -21 12 -355 6 -403 -7 -28 -7 -51 -11 -51 -8 0 3 -6 0 -13 -6 -8
-6 -17 -8 -20 -4 -4 3 -7 2 -7 -3 0 -5 -8 -10 -18 -11 -23 -2 -138 -69 -176
-102 -114 -103 -177 -184 -248 -320 -41 -77 -48 -86 -103 -115 -71 -38 -225
-129 -263 -155 -95 -66 -208 -146 -212 -151 -3 -3 -21 -17 -40 -30 -19 -14
-42 -32 -51 -40 -9 -8 -42 -37 -74 -65 -32 -27 -67 -58 -78 -67 -11 -10 -24
-18 -29 -18 -5 0 -6 -4 -3 -10 3 -5 2 -10 -4 -10 -11 0 -250 -238 -331 -331
-30 -34 -82 -94 -114 -133 -32 -39 -63 -72 -67 -74 -5 -2 -9 -10 -9 -17 0 -7
-4 -15 -8 -17 -5 -1 -32 -34 -61 -73 -30 -38 -57 -72 -60 -75 -4 -3 -15 -18
-25 -35 -11 -16 -23 -34 -28 -40 -8 -9 -68 -95 -138 -195 -57 -82 -100 -152
-100 -161 0 -5 -4 -9 -10 -9 -5 0 -10 -7 -10 -15 0 -8 -4 -15 -10 -15 -5 0
-10 -6 -10 -12 0 -7 -9 -24 -20 -38 l-20 -25 9 26 c5 15 7 30 4 33 -4 3 -1 6
5 6 7 0 11 3 10 8 -2 6 25 103 39 142 3 8 7 21 9 28 1 8 6 21 10 30 4 9 8 22
10 29 3 16 24 84 31 103 4 8 7 18 8 23 2 4 3 8 5 10 1 1 3 10 5 20 7 37 39
133 48 145 5 6 7 12 4 12 -3 0 4 28 15 63 29 90 69 220 73 237 2 8 11 38 19
65 39 133 58 201 61 215 2 8 8 26 13 40 5 14 10 28 11 33 0 4 1 8 2 10 3 9 10
45 11 60 1 9 5 17 8 17 3 0 7 8 8 18 3 31 7 47 15 60 5 6 6 12 3 12 -2 0 2 24
10 53 8 28 17 68 20 87 3 19 10 51 16 70 13 40 17 240 6 315 -17 113 -87 294
-134 345 -102 112 -151 153 -244 201 -25 13 -47 23 -50 24 -3 0 -32 11 -65 24
-150 57 -492 95 -620 69z"/>
<path d="M13510 12269 c-70 -6 -105 -11 -173 -24 -93 -18 -366 -125 -375 -147
-2 -5 -7 -6 -12 -3 -4 3 -13 -2 -20 -10 -7 -8 -16 -15 -21 -15 -28 0 -315
-212 -427 -315 -90 -83 -258 -258 -341 -355 -85 -101 -89 -106 -146 -180 -28
-36 -52 -67 -55 -70 -14 -14 -70 -90 -70 -94 0 -5 -53 -80 -80 -113 -22 -27
-122 -178 -210 -318 -52 -82 -99 -153 -105 -157 -5 -4 -7 -8 -3 -8 4 0 -9 -28
-30 -62 -55 -91 -127 -222 -123 -227 1 -2 -1 -7 -6 -10 -9 -6 -82 -152 -148
-295 -66 -144 -182 -454 -200 -536 -2 -8 -4 -15 -5 -15 -1 0 -3 -7 -5 -15 -2
-8 -7 -26 -10 -40 -7 -27 -16 -69 -19 -85 -1 -5 -5 -16 -9 -22 -5 -7 -6 -13
-4 -13 2 0 0 -19 -5 -42 -5 -24 -11 -59 -14 -78 -3 -19 -7 -46 -9 -60 -18 -92
-24 -347 -12 -485 3 -38 6 -70 7 -70 1 0 3 -13 5 -30 7 -60 28 -150 37 -162 6
-7 7 -17 4 -22 -4 -5 -2 -12 3 -15 7 -5 22 -55 20 -72 0 -4 4 -10 10 -14 6 -3
13 -15 15 -26 7 -33 96 -184 131 -220 5 -6 27 -30 49 -54 21 -23 68 -64 105
-91 36 -27 71 -53 77 -58 6 -5 20 -12 32 -15 12 -4 28 -13 34 -19 32 -30 247
-102 363 -122 139 -24 201 -29 365 -29 164 0 215 4 278 23 17 5 32 7 32 4 0
-3 6 -1 13 5 6 6 15 11 20 11 4 1 8 1 10 2 1 0 12 2 25 5 61 11 319 133 394
185 14 11 30 19 35 19 6 0 18 9 28 20 10 11 21 17 25 15 5 -3 10 -2 12 3 1 4
26 23 53 42 28 19 52 37 55 40 3 3 21 17 40 30 19 13 37 27 40 30 3 3 27 24
55 45 27 22 55 45 61 50 7 6 45 39 85 75 119 105 509 501 509 517 0 2 10 14
23 27 20 20 62 69 153 175 17 20 57 70 90 111 59 75 76 96 112 138 11 12 30
38 43 57 13 19 27 35 32 35 4 0 7 6 7 14 0 8 4 16 8 18 5 2 42 48 83 103 41
55 77 102 82 103 4 2 7 10 7 17 0 7 4 15 8 17 6 2 139 184 184 252 7 10 28 40
47 65 60 80 91 148 91 200 -1 56 -17 80 -61 87 -33 6 -40 0 -251 -218 -119
-122 -241 -248 -270 -280 -29 -31 -87 -92 -128 -135 -41 -44 -129 -137 -195
-208 -230 -246 -734 -745 -828 -820 -21 -16 -46 -37 -57 -46 -10 -8 -31 -24
-46 -35 -15 -10 -35 -26 -44 -34 -30 -28 -139 -100 -150 -100 -5 0 -10 -4 -10
-8 0 -5 -17 -17 -37 -28 -21 -10 -40 -22 -43 -25 -3 -4 -33 -21 -67 -38 -34
-18 -65 -36 -68 -41 -4 -6 -14 -10 -24 -10 -10 0 -24 -7 -31 -15 -6 -8 -15
-14 -18 -13 -4 1 -29 -8 -56 -20 -58 -26 -209 -79 -251 -87 -324 -64 -503 -26
-627 133 -10 12 -18 26 -18 31 0 5 -7 14 -15 21 -8 7 -12 16 -9 21 3 5 0 9 -5
9 -6 0 -11 11 -11 24 0 14 -4 27 -8 30 -5 3 -14 29 -20 58 -38 176 -36 388 4
586 8 40 12 77 9 83 -4 5 -2 9 4 9 5 0 12 19 16 43 6 37 64 226 82 267 3 8 5
18 5 23 -1 4 3 7 10 7 6 0 9 3 5 6 -7 7 17 69 73 196 51 112 133 282 140 288
5 5 42 74 82 155 12 22 24 42 29 43 5 2 9 9 9 15 0 13 170 291 182 295 4 2 8
8 8 14 0 9 119 187 184 274 17 23 39 53 48 65 21 30 29 40 132 171 46 59 87
104 90 101 3 -4 6 -1 6 6 0 9 61 82 165 197 21 24 207 214 209 214 1 0 38 34
81 76 44 42 97 90 118 107 21 18 49 41 61 52 13 11 40 34 60 50 21 17 48 39
60 50 13 11 36 29 52 40 15 11 40 30 55 43 15 12 65 47 111 77 45 30 88 58 93
63 6 5 29 17 53 27 23 10 42 22 42 27 0 4 3 7 8 6 4 -1 30 6 58 15 117 40 184
17 212 -73 6 -21 10 -243 4 -254 -3 -5 -7 -28 -8 -50 -5 -58 -42 -229 -60
-271 -8 -19 -15 -38 -15 -42 -8 -53 -136 -298 -181 -347 -10 -11 -18 -23 -18
-28 0 -4 -8 -16 -17 -26 -10 -10 -36 -40 -58 -67 -60 -73 -226 -235 -240 -235
-3 0 -17 -11 -31 -25 -25 -25 -250 -177 -319 -215 -68 -38 -160 -84 -167 -85
-4 0 -13 -6 -19 -12 -7 -7 -16 -13 -20 -13 -4 0 -42 -16 -85 -36 -69 -32 -176
-75 -319 -130 -27 -10 -58 -19 -67 -20 -10 -1 -24 -7 -33 -14 -8 -7 -15 -9
-15 -6 0 4 -9 2 -21 -4 -11 -6 -30 -13 -41 -15 -25 -5 -27 -8 -57 -57 -13 -21
-18 -38 -12 -38 6 0 11 -7 11 -15 0 -26 76 -38 205 -31 66 3 136 9 155 12 50
8 198 40 245 54 22 6 46 12 53 12 6 1 12 5 12 10 0 4 3 7 8 6 15 -5 102 25
102 35 0 6 3 7 7 4 3 -4 12 -2 20 4 7 6 13 9 13 5 0 -3 17 3 37 14 21 11 43
20 50 20 7 0 13 5 13 12 0 6 3 9 6 6 5 -6 61 22 194 94 148 81 456 307 579
425 19 18 37 33 41 33 4 0 13 11 20 25 7 14 15 23 17 21 2 -2 25 19 51 48 26
28 56 60 67 71 29 29 159 204 181 245 10 19 21 37 24 40 20 18 94 205 115 288
73 289 2 560 -193 737 -24 22 -55 50 -68 63 -13 12 -27 22 -31 22 -5 0 -15 9
-23 20 -8 11 -20 20 -27 20 -7 0 -13 4 -13 8 0 5 -10 14 -22 20 -13 6 -47 25
-75 41 -29 17 -53 28 -53 24 0 -3 -8 1 -17 9 -16 14 -105 44 -188 63 -73 16
-189 22 -285 14z"/>
<path d="M21117 12273 c-2 -1 -29 -4 -62 -7 -67 -6 -176 -28 -245 -49 -57 -18
-213 -79 -220 -87 -3 -3 -34 -20 -70 -39 -36 -19 -72 -40 -81 -47 -8 -8 -21
-14 -27 -14 -7 0 -12 -4 -12 -10 0 -5 -6 -10 -12 -10 -12 0 -156 -103 -168
-119 -3 -4 -20 -18 -39 -31 -18 -13 -47 -36 -63 -52 -16 -15 -33 -28 -39 -28
-6 0 -7 -4 -4 -10 3 -5 1 -10 -5 -10 -20 0 -312 -303 -391 -405 -13 -16 -28
-35 -34 -41 -5 -6 -21 -25 -35 -43 -14 -18 -30 -38 -36 -44 -6 -7 -45 -59 -88
-117 -42 -58 -83 -112 -89 -120 -7 -9 -30 -43 -52 -75 -22 -33 -46 -66 -52
-73 -7 -7 -13 -20 -13 -28 0 -8 -4 -14 -10 -14 -5 0 -17 -16 -26 -35 -9 -19
-20 -35 -25 -35 -5 0 -9 -5 -9 -10 0 -6 -20 -41 -43 -78 -84 -129 -126 -197
-138 -224 -7 -16 -16 -28 -21 -28 -4 0 -8 -9 -8 -19 0 -11 -4 -21 -9 -23 -8
-3 -33 -48 -157 -285 -24 -46 -40 -83 -36 -83 4 0 2 -4 -4 -8 -10 -7 -17 -22
-62 -122 -41 -92 -55 -125 -57 -135 -2 -5 -16 -44 -33 -85 -74 -189 -146 -436
-168 -585 -3 -16 -9 -55 -15 -87 -14 -80 -28 -344 -19 -368 1 -3 3 -36 5 -75
2 -38 6 -86 9 -105 9 -68 17 -115 23 -135 4 -11 8 -25 9 -32 3 -17 24 -84 33
-108 29 -72 59 -135 78 -167 13 -21 23 -42 23 -48 0 -5 4 -10 8 -10 4 0 16
-14 26 -31 26 -43 142 -159 201 -199 28 -19 52 -38 53 -42 2 -4 8 -6 13 -2 5
3 9 0 9 -5 0 -6 3 -10 8 -9 4 1 23 -6 42 -17 103 -57 274 -109 425 -131 97
-14 146 -17 290 -18 153 -1 229 5 295 24 17 5 34 10 38 11 4 1 12 3 17 4 286
76 670 322 1014 650 239 227 499 512 686 750 17 21 35 43 40 49 6 6 26 31 45
56 19 25 37 47 40 50 3 3 48 61 100 130 52 69 98 130 102 135 10 13 182 253
231 323 20 28 52 74 71 100 52 75 67 109 70 164 3 44 0 54 -21 74 -44 40 -68
29 -188 -93 -140 -141 -423 -437 -645 -674 -256 -275 -757 -776 -846 -849 -11
-8 -39 -31 -64 -50 -24 -19 -51 -41 -58 -48 -7 -6 -35 -26 -60 -44 -26 -17
-49 -34 -52 -38 -7 -9 -166 -111 -236 -152 -56 -33 -229 -118 -239 -118 -2 0
-16 -5 -32 -12 -15 -6 -30 -12 -33 -13 -3 -1 -12 -4 -20 -8 -133 -54 -390 -86
-510 -64 -131 24 -223 89 -285 202 -33 59 -69 164 -60 173 2 3 0 12 -4 21 -19
36 -29 255 -16 366 15 142 26 198 62 335 29 112 82 270 96 288 5 6 7 12 4 12
-4 0 7 30 23 66 17 36 30 72 30 79 0 7 4 15 10 17 5 2 11 12 13 23 3 19 170
359 187 380 4 6 21 35 38 65 53 99 193 325 202 328 6 2 10 8 10 13 0 11 136
216 156 237 7 6 16 21 19 32 3 11 10 20 15 20 5 0 16 12 24 28 8 15 26 39 40
54 14 15 26 31 26 35 0 5 10 19 23 33 12 14 38 45 57 70 19 25 37 47 40 50 3
3 22 25 42 50 137 168 384 426 531 555 38 33 79 69 91 80 112 100 338 274 411
316 22 13 42 26 45 29 26 28 187 94 249 102 94 11 143 -53 144 -187 1 -55 -12
-218 -18 -250 -3 -11 -7 -32 -9 -48 -3 -15 -7 -35 -10 -45 -3 -9 -7 -28 -10
-42 -10 -49 -14 -66 -36 -125 -27 -75 -105 -237 -139 -290 -95 -149 -232 -302
-376 -421 -33 -27 -61 -52 -63 -56 -2 -5 -10 -8 -18 -8 -8 0 -14 -4 -14 -8 0
-4 -25 -23 -55 -41 -30 -18 -55 -38 -55 -43 0 -5 -4 -6 -10 -3 -5 3 -10 1 -10
-4 0 -6 -4 -11 -9 -11 -6 0 -29 -13 -53 -29 -24 -16 -90 -53 -148 -82 -58 -30
-108 -58 -112 -64 -4 -5 -8 -7 -8 -3 0 4 -19 -3 -42 -16 -24 -13 -45 -24 -48
-24 -3 0 -32 -12 -65 -27 -76 -33 -297 -116 -392 -146 -40 -13 -73 -27 -73
-31 0 -5 -8 -20 -17 -35 -24 -36 -24 -49 -1 -70 17 -15 38 -18 147 -18 116 0
233 9 263 20 7 2 24 7 38 9 81 16 157 35 185 46 17 7 87 31 105 35 6 2 19 7
105 43 83 34 211 97 245 122 15 11 31 20 34 20 6 0 103 58 121 72 6 5 57 41
114 81 57 39 113 79 125 87 11 8 37 29 56 47 19 18 37 33 40 33 10 0 98 81
199 180 101 101 128 130 176 195 17 22 35 45 41 52 6 6 26 35 45 65 18 29 37
55 41 56 5 2 8 12 8 22 0 10 4 21 9 25 20 12 105 225 117 293 2 12 7 34 10 50
9 39 10 250 1 292 -3 19 -9 44 -11 56 -2 11 -11 37 -20 57 -8 21 -15 38 -14
40 1 1 -11 21 -25 44 -15 24 -27 45 -27 48 0 23 -177 195 -265 257 -171 121
-336 176 -548 182 -38 1 -69 0 -70 -1z"/>
</g>
</svg>
