<svg width="141" height="62" viewBox="0 0 141 62" fill="none" xmlns="http://www.w3.org/2000/svg">
<path d="M22.904 36.888L26.264 36.792H29.432C32.312 34.488 35.8 31.288 39.896 27.192C43.992 23.096 46.872 19.832 48.536 17.4L51.512 13.08C51.768 13.08 51.896 13.432 51.896 14.136C51.896 17.016 49.624 20.952 45.08 25.944L35.096 36.504L46.52 35.352C48.568 30.936 50.808 26.456 53.24 21.912C55.672 17.304 57.176 14.424 57.752 13.272C58.392 12.056 59 10.872 59.576 9.72C60.216 8.504 60.92 7.384 61.688 6.36C62.456 5.336 63.16 4.824 63.8 4.824C64.504 4.824 65.336 5.048 66.296 5.496C67.32 5.88 67.832 6.296 67.832 6.744C67 7.96 66.072 9.4 65.048 11.064C64.088 12.728 63.032 14.52 61.88 16.44C50.552 35.384 44.888 48.664 44.888 56.28C44.888 57.176 45.144 58.296 45.656 59.64C46.296 61.176 46.488 61.944 46.232 61.944C44.952 61.944 43.896 61.144 43.064 59.544C42.296 58.008 41.912 55.992 41.912 53.496C41.912 51.064 43.224 45.816 45.848 37.752C44.952 37.752 42.488 38.072 38.456 38.712C34.424 39.352 31.928 39.8 30.968 40.056C20.472 49.144 12.28 53.688 6.392 53.688C3.896 53.688 1.976 52.856 0.632 51.192C0.888 51.128 1.048 51.096 1.112 51.096L3.896 51.576C8.632 51.576 15.736 47.864 25.208 40.44V40.344L20.024 40.536C18.488 40.536 17.144 40.12 15.992 39.288C14.904 38.392 14.36 37.304 14.36 36.024L14.552 35.832C14.552 35.768 14.584 35.736 14.648 35.736L14.936 35.928C15.576 36.568 18.232 36.888 22.904 36.888ZM62.5595 53.208L64.0955 52.728C64.4155 52.728 64.5755 52.888 64.5755 53.208C64.5755 54.232 63.4555 54.744 61.2155 54.744C58.1435 54.744 56.6075 52.184 56.6075 47.064C56.6075 43.672 57.6315 38.296 59.6795 30.936C61.7275 23.512 64.3195 16.568 67.4555 10.104C70.5915 3.64 73.4075 0.407999 75.9035 0.407999C77.3115 0.407999 78.7195 0.887999 80.1275 1.848C81.5355 2.744 82.2395 3.736 82.2395 4.824C82.2395 9.432 75.4555 19.672 61.8875 35.544C60.7995 40.28 60.2555 44.408 60.2555 47.928C60.2555 51.448 61.0235 53.208 62.5595 53.208ZM79.9355 4.536C79.9355 3.768 79.7115 3.384 79.2635 3.384C77.3435 3.384 74.5595 6.808 70.9115 13.656C67.2635 20.44 64.4795 26.904 62.5595 33.048C74.1435 17.88 79.9355 8.376 79.9355 4.536ZM92.375 39C92.759 39 92.951 39.16 92.951 39.48C92.951 39.736 92.887 39.992 92.759 40.248C86.039 50.04 80.471 54.936 76.055 54.936C70.615 54.936 67.895 52.408 67.895 47.352C67.895 43.448 69.815 38.712 73.655 33.144C77.559 27.576 81.335 24.792 84.983 24.792C86.519 24.792 87.863 25.304 89.015 26.328C90.231 27.288 90.839 28.472 90.839 29.88C90.839 32.312 89.335 34.712 86.327 37.08C83.319 39.448 80.407 40.632 77.591 40.632C77.015 40.632 76.727 40.504 76.727 40.248L77.015 39.768C84.375 37.464 88.055 33.688 88.055 28.44C88.055 27.672 87.799 27.288 87.287 27.288C86.519 27.288 85.239 28.024 83.447 29.496C80.311 32.056 77.591 35.256 75.287 39.096C72.983 42.936 71.831 46.168 71.831 48.792C71.831 51.416 72.823 52.728 74.807 52.728C77.047 52.728 79.575 51.544 82.391 49.176C84.183 47.512 86.263 45.4 88.631 42.84C91.063 40.28 92.311 39 92.375 39ZM120.061 24.888C120.061 24.632 119.709 24.984 119.005 25.944C116.573 29.336 115.261 31.832 115.069 33.432C115.069 35.16 115.677 36.216 116.893 36.6C117.341 36.728 117.565 36.824 117.565 36.888C117.565 37.4 116.925 37.656 115.645 37.656C114.429 37.656 113.373 37.176 112.477 36.216C111.581 35.192 111.133 34.072 111.133 32.856C111.133 31.576 111.293 30.488 111.613 29.592C108.477 32.088 105.853 34.648 103.741 37.272C101.693 39.896 100.285 42.168 99.5173 44.088C98.7493 46.008 98.1733 47.768 97.7893 49.368C97.4053 50.904 97.0853 52.056 96.8293 52.824C96.5733 53.656 96.1573 54.072 95.5813 54.072C95.0053 54.072 94.3653 53.912 93.6613 53.592C92.9573 53.272 92.6053 52.888 92.6053 52.44C92.6053 51.352 93.6613 47.512 95.7733 40.92C97.8853 34.264 98.9413 29.272 98.9413 25.944C98.9413 24.856 98.4933 24.28 97.5973 24.216C96.7013 24.088 96.2533 23.896 96.2533 23.64C96.2533 23.064 96.7333 22.776 97.6933 22.776C101.981 22.776 104.125 24.536 104.125 28.056C104.125 29.08 103.069 32.856 100.957 39.384C104.413 33.752 108.253 29.88 112.477 27.768C113.501 25.464 115.005 24.312 116.989 24.312C119.037 24.312 120.061 24.504 120.061 24.888ZM139.719 39C140.103 39 140.295 39.16 140.295 39.48C140.295 39.736 140.231 39.992 140.103 40.248C133.383 50.04 127.815 54.936 123.399 54.936C117.959 54.936 115.239 52.408 115.239 47.352C115.239 43.448 117.159 38.712 120.999 33.144C124.903 27.576 128.679 24.792 132.327 24.792C133.863 24.792 135.207 25.304 136.359 26.328C137.575 27.288 138.183 28.472 138.183 29.88C138.183 32.312 136.679 34.712 133.671 37.08C130.663 39.448 127.751 40.632 124.935 40.632C124.359 40.632 124.071 40.504 124.071 40.248L124.359 39.768C131.719 37.464 135.399 33.688 135.399 28.44C135.399 27.672 135.143 27.288 134.631 27.288C133.863 27.288 132.583 28.024 130.791 29.496C127.655 32.056 124.935 35.256 122.631 39.096C120.327 42.936 119.175 46.168 119.175 48.792C119.175 51.416 120.167 52.728 122.151 52.728C124.391 52.728 126.919 51.544 129.735 49.176C131.527 47.512 133.607 45.4 135.975 42.84C138.407 40.28 139.655 39 139.719 39Z" fill="#FF9900"/>
</svg>
